<svg id="visual" viewBox="0 0 900 600" width="900" height="600" xmlns="http://www.w3.org/2000/svg" xmlns:xlink="http://www.w3.org/1999/xlink" version="1.1"><path d="M0 85L15 101C30 117 60 149 90 157C120 165 150 149 180 150C210 151 240 169 270 161C300 153 330 119 360 101C390 83 420 81 450 83C480 85 510 91 540 94C570 97 600 97 630 96C660 95 690 93 720 101C750 109 780 127 810 140C840 153 870 161 885 165L900 169L900 0L885 0C870 0 840 0 810 0C780 0 750 0 720 0C690 0 660 0 630 0C600 0 570 0 540 0C510 0 480 0 450 0C420 0 390 0 360 0C330 0 300 0 270 0C240 0 210 0 180 0C150 0 120 0 90 0C60 0 30 0 15 0L0 0Z" fill="#552a1e"></path><path d="M0 169L15 178C30 187 60 205 90 211C120 217 150 211 180 213C210 215 240 225 270 215C300 205 330 175 360 155C390 135 420 125 450 123C480 121 510 127 540 136C570 145 600 157 630 157C660 157 690 145 720 154C750 163 780 193 810 207C840 221 870 219 885 218L900 217L900 167L885 163C870 159 840 151 810 138C780 125 750 107 720 99C690 91 660 93 630 94C600 95 570 95 540 92C510 89 480 83 450 81C420 79 390 81 360 99C330 117 300 151 270 159C240 167 210 149 180 148C150 147 120 163 90 155C60 147 30 115 15 99L0 83Z" fill="#703f30"></path><path d="M0 205L15 220C30 235 60 265 90 273C120 281 150 267 180 263C210 259 240 265 270 254C300 243 330 215 360 206C390 197 420 207 450 205C480 203 510 189 540 193C570 197 600 219 630 221C660 223 690 205 720 214C750 223 780 259 810 278C840 297 870 299 885 300L900 301L900 215L885 216C870 217 840 219 810 205C780 191 750 161 720 152C690 143 660 155 630 155C600 155 570 143 540 134C510 125 480 119 450 121C420 123 390 133 360 153C330 173 300 203 270 213C240 223 210 213 180 211C150 209 120 215 90 209C60 203 30 185 15 176L0 167Z" fill="#8c5543"></path><path d="M0 421L15 413C30 405 60 389 90 386C120 383 150 393 180 407C210 421 240 439 270 434C300 429 330 401 360 386C390 371 420 369 450 368C480 367 510 367 540 375C570 383 600 399 630 406C660 413 690 411 720 408C750 405 780 401 810 406C840 411 870 425 885 432L900 439L900 299L885 298C870 297 840 295 810 276C780 257 750 221 720 212C690 203 660 221 630 219C600 217 570 195 540 191C510 187 480 201 450 203C420 205 390 195 360 204C330 213 300 241 270 252C240 263 210 257 180 261C150 265 120 279 90 271C60 263 30 233 15 218L0 203Z" fill="#975e4b"></path><path d="M0 457L15 449C30 441 60 425 90 427C120 429 150 449 180 463C210 477 240 485 270 478C300 471 330 449 360 439C390 429 420 431 450 433C480 435 510 437 540 443C570 449 600 459 630 463C660 467 690 465 720 463C750 461 780 459 810 459C840 459 870 461 885 462L900 463L900 437L885 430C870 423 840 409 810 404C780 399 750 403 720 406C690 409 660 411 630 404C600 397 570 381 540 373C510 365 480 365 450 366C420 367 390 369 360 384C330 399 300 427 270 432C240 437 210 419 180 405C150 391 120 381 90 384C60 387 30 403 15 411L0 419Z" fill="#8c5543"></path><path d="M0 505L15 499C30 493 60 481 90 486C120 491 150 513 180 522C210 531 240 527 270 520C300 513 330 503 360 499C390 495 420 497 450 499C480 501 510 503 540 508C570 513 600 521 630 523C660 525 690 521 720 516C750 511 780 505 810 507C840 509 870 519 885 524L900 529L900 461L885 460C870 459 840 457 810 457C780 457 750 459 720 461C690 463 660 465 630 461C600 457 570 447 540 441C510 435 480 433 450 431C420 429 390 427 360 437C330 447 300 469 270 476C240 483 210 475 180 461C150 447 120 427 90 425C60 423 30 439 15 447L0 455Z" fill="#703f30"></path><path d="M0 601L15 601C30 601 60 601 90 601C120 601 150 601 180 601C210 601 240 601 270 601C300 601 330 601 360 601C390 601 420 601 450 601C480 601 510 601 540 601C570 601 600 601 630 601C660 601 690 601 720 601C750 601 780 601 810 601C840 601 870 601 885 601L900 601L900 527L885 522C870 517 840 507 810 505C780 503 750 509 720 514C690 519 660 523 630 521C600 519 570 511 540 506C510 501 480 499 450 497C420 495 390 493 360 497C330 501 300 511 270 518C240 525 210 529 180 520C150 511 120 489 90 484C60 479 30 491 15 497L0 503Z" fill="#552a1e"></path></svg>