<svg width="81" height="48" viewBox="0 0 81 48" fill="none" xmlns="http://www.w3.org/2000/svg">
<path d="M0.6 -3.8147e-06H12.312V4.352H8.984L19.544 43.648L30.04 4.352H26.008V-3.8147e-06H38.36V4.352H34.904L23.192 48H15.832L4.184 4.352H0.6V-3.8147e-06ZM80.3215 43.648V48H67.6495V43.648H71.1055L60.1615 26.048L53.3775 30.208V43.648H57.5375V48H44.0975V43.648H48.1295V4.352H44.0975V-3.8147e-06H66.9455C69.7615 -3.8147e-06 71.6602 0.554663 72.6415 1.664C73.6228 2.73066 74.1135 4.84266 74.1135 8V11.968C74.1135 13.5893 73.9642 14.8693 73.6655 15.808C73.3668 16.7467 72.8335 17.6 72.0655 18.368C71.2975 19.0933 70.2735 19.84 68.9935 20.608C67.7135 21.376 66.0922 22.3573 64.1295 23.552L76.7375 43.648H80.3215ZM53.3775 25.088L69.4415 15.168V4.352H53.3775V25.088Z" fill="#F3EEE2"/>
</svg>
